/* XPM */
static char *_1dfb2a73f354613b7bae86788031494buBTAA0TMlTeCego[] = {
/* columns rows colors chars-per-pixel */
"32 32 2 1 ",
"  c None",
". c #BEBDBF",
/* pixels */
"                                ",
"                                ",
"                                ",
"                                ",
"                                ",
"                                ",
"                                ",
"                                ",
"              ....              ",
"              .  .              ",
"              .  .              ",
"              .  .              ",
"              .  .              ",
"               ..               ",
"        .....      .....        ",
"        .    .    .    .        ",
"        .    .    .    .        ",
"        .....      .....        ",
"               ..               ",
"              .  .              ",
"              .  .              ",
"              .  .              ",
"              .  .              ",
"              ....              ",
"                                ",
"                                ",
"                                ",
"                                ",
"                                ",
"                                ",
"                                ",
"                                "
};
