/* XPM */
static char *_352207e4e0c4eaac1cc8bc3ce9b76532wOKSIiW9w7h33qV[] = {
/* columns rows colors chars-per-pixel */
"32 32 8 1 ",
"  c None",
". c black",
"X c #727272",
"o c #007AA4",
"O c #7CDEFF",
"+ c #A9A9A9",
"@ c #BFEFFF",
"# c white",
/* pixels */
".........                       ",
".####..                         ",
".##..                           ",
".#.                             ",
".#.      .....                  ",
"..     ..+++++..                ",
"..    .+++++++++.               ",
".    .+++++++++++.              ",
".    .+++++++++++.              ",
"    .+++++.........             ",
"    .++++.OOOO@@@@@.            ",
"  ...++++.oOOOO@@@@.            ",
" .++.++++.ooOOOOOOO.            ",
" .++.X+++.oooooooOO.            ",
" .X+.X++++.........             ",
" .X+.X++++++++++++.             ",
" .X+.X++++++++++++.             ",
" .X+.X++++++++++++.             ",
" .XX.X+++++XXX++++.             ",
"  ...X+++++...++++.             ",
"    .X++++. .X++++.             ",
"    .X++++. .X++++.             ",
"    .X++++. .X++++.             ",
"    .X++++. .X++++.             ",
"    .XXXXX. .XXXXX.             ",
"     .....   .....              ",
"                                ",
"                                ",
"                                ",
"                                ",
"                                ",
"                                "
};
